# xmcd
#
# Track frame offsets:
#	150
#	19450
#	34950
#	41662
#	61018
#	77786
#	87798
#	108105
#	126588
#	136956
#	157369
#	172064
#
# Disc length: 2497 seconds
#
# Revision: 1
# Processed by: cddbd v1.5.2PL0 Copyright (c) Steve Scherf et al.
# Submitted via: audiograbber 1.83.01
#
DISCID=a609bf0c
DTITLE=Jeff Gonzales - Early Morning Blues
DYEAR=1900
DGENRE=Blues
TTITLE0=Early Morning Blues
TTITLE1=Big River
TTITLE2=Great Dream from Heaven
TTITLE3=Funny That Way
TTITLE4=Travlin Man
TTITLE5=Buckdancer's Choice
TTITLE6=Cocaine
TTITLE7=Going Down the Road
TTITLE8=Dark Was the Night
TTITLE9=Stateboro Blues
TTITLE10=Nobody's Business
TTITLE11=Roll On Buddy
EXTD=
EXTT0=
EXTT1=
EXTT2=
EXTT3=
EXTT4=
EXTT5=
EXTT6=
EXTT7=
EXTT8=
EXTT9=
EXTT10=
EXTT11=
PLAYORDER=
